<svg version="1.1" xmlns="http://www.w3.org/2000/svg" xmlns:xlink="http://www.w3.org/1999/xlink" width="48" height="48"><defs><linearGradient x1="14.2299" y1="14.74411" x2="54.98331" y2="54.46909" gradientUnits="userSpaceOnUse" id="color-1"><stop offset="0" stop-color="#000000" stop-opacity="0.3"></stop><stop offset="1" stop-color="#000000" stop-opacity="0"></stop></linearGradient><filter id="dropshadow-base"><feColorMatrix type="matrix" values="0 0 0 0 0  0 0 0 0 0  0 0 0 0 0  0 0 0 .8 0"></feColorMatrix> <feOffset dx="0" dy="1"></feOffset> <feGaussianBlur stdDeviation="1"></feGaussianBlur> <feComposite in="SourceGraphic"></feComposite></filter><filter id="dropshadow-banner" x="-10%" y="-10%" width="120%" height="130%"><feColorMatrix type="matrix" values="0 0 0 0 0  0 0 0 0 0  0 0 0 0 0  0 0 0 .4 0"></feColorMatrix> <feOffset dx="0" dy="1"></feOffset> <feGaussianBlur stdDeviation="0.5"></feGaussianBlur> <feComposite in="SourceGraphic"></feComposite></filter></defs><g fill="none" fill-rule="nonzero" stroke="none" stroke-width="none" stroke-linecap="butt" stroke-linejoin="miter" stroke-miterlimit="10" stroke-dasharray="" stroke-dashoffset="0" font-family="none" font-weight="none" font-size="none" text-anchor="none" style="mix-blend-mode: normal"><path d="M2,24c0,-12.15026 9.84974,-22 22,-22c12.15026,0 22,9.84974 22,22c0,12.15026 -9.84974,22 -22,22c-12.15026,0 -22,-9.84974 -22,-22z" id="base 1 5" fill="#6699cc" stroke-width="1"></path><path d="M14.83218,32.65361c-0.37216,-0.37216 -0.60228,-0.88638 -0.60228,-1.45459v-14.39805c0,-1.13642 0.92045,-2.05686 2.05686,-2.05686h14.39805c0.56821,0 1.08242,0.23011 1.45459,0.60227l13.35675,13.35675c-1.88585,8.65953 -8.8712,15.41487 -17.65225,16.9622z" fill="url(#color-1)" stroke-width="1"></path><path d="M32.74168,30.1706v1.02843c0,1.13642 -0.92045,2.05687 -2.05687,2.05687h-14.39806c-1.13642,0 -2.05687,-0.92045 -2.05687,-2.05687v-14.39806c0,-1.13642 0.92045,-2.05687 2.05687,-2.05687h14.39806c1.13642,0 2.05687,0.92045 2.05687,2.05687v1.02843h-9.25589c-1.13642,0 -2.05687,0.92045 -2.05687,2.05687v8.22746c0,1.13642 0.92045,2.05687 2.05687,2.05687zM23.48578,28.11373h10.28433v-8.22746h-10.28433zM27.59951,25.54265c-0.8536,0 -1.54265,-0.68905 -1.54265,-1.54265c0,-0.8536 0.68905,-1.54265 1.54265,-1.54265c0.8536,0 1.54265,0.68905 1.54265,1.54265c0,0.8536 -0.68905,1.54265 -1.54265,1.54265z" fill="none" stroke-width="0"></path><path d="M32.74168,30.1706v1.02843c0,1.13642 -0.92045,2.05687 -2.05687,2.05687h-14.39806c-1.13642,0 -2.05687,-0.92045 -2.05687,-2.05687v-14.39806c0,-1.13642 0.92045,-2.05687 2.05687,-2.05687h14.39806c1.13642,0 2.05687,0.92045 2.05687,2.05687v1.02843h-9.25589c-1.13642,0 -2.05687,0.92045 -2.05687,2.05687v8.22746c0,1.13642 0.92045,2.05687 2.05687,2.05687zM23.48578,19.88627h10.28433v8.22746h-10.28433zM29.14216,24c0,-0.8536 -0.68905,-1.54265 -1.54265,-1.54265c-0.8536,0 -1.54265,0.68905 -1.54265,1.54265c0,0.8536 0.68905,1.54265 1.54265,1.54265c0.8536,0 1.54265,-0.68905 1.54265,-1.54265z" fill="#ffffff" stroke-width="0"></path><path d="M2,24c0,-12.15026 9.84974,-22 22,-22c12.15026,0 22,9.84974 22,22c0,12.15026 -9.84974,22 -22,22c-12.15026,0 -22,-9.84974 -22,-22z" id="base 1 1 1" fill="none" stroke-width="1"></path><g fill="#000000" stroke-width="1" font-family="Roboto, sans-serif" font-weight="normal" font-size="14" text-anchor="start"></g><rect x="2" y="2" width="44" height="22" fill="none" stroke-width="1"></rect><path d="M2,24v-22h44v22z" fill="none" stroke-width="1"></path><path d="M2,24v-22h44v22z" fill="none" stroke-width="1"></path><path d="M2,24v-22h44v22z" fill="none" stroke-width="1"></path><path d="M2,24v-22h44v22z" fill="none" stroke-width="1"></path></g></svg>