<svg xmlns="http://www.w3.org/2000/svg" viewBox="0 0 100 125"><path d="M5 71.956h27.58V52.628H5v19.328zm18.826-13.901c2.285 0 4.137 1.896 4.137 4.237 0 2.34-1.852 4.237-4.137 4.237s-4.137-1.896-4.137-4.237 1.852-4.237 4.137-4.237z"/><path d="M95 37.929c0-4.602-4.125-8.345-9.195-8.345H18.791c-5.076 0-9.203 3.743-9.203 8.345v11.726h24.445c.802 0 1.451.665 1.451 1.487v22.301c0 .822-.649 1.486-1.451 1.486H9.588v11.726c0 4.6 4.127 8.346 9.203 8.346h67.014C90.875 95 95 91.254 95 86.654V37.929zM65.327 5L33.459 26.084l7.701-3.246L69.138 11.04zm11.721 5.92l-5.19 2.187v.003L39.549 26.732h13.834l15.625-6.589c1.176 2.93 4.45 4.327 7.309 3.122l1.393 3.467h5.698l-6.36-15.812z"/><text y="115" font-size="5" font-weight="bold" font-family="'Helvetica Neue', Helvetica, Arial-Unicode, Arial, Sans-serif">Created by Royyan Wijaya</text><text y="120" font-size="5" font-weight="bold" font-family="'Helvetica Neue', Helvetica, Arial-Unicode, Arial, Sans-serif">from the Noun Project</text></svg>