<svg xmlns="http://www.w3.org/2000/svg" xmlns:xlink="http://www.w3.org/1999/xlink" version="1.1" x="0px" y="0px" viewBox="0 0 100 125" enable-background="new 0 0 100 100" xml:space="preserve"><g><g><path d="M5,71.956h3.136H32.58V52.628H8.136H5V71.956z M23.826,58.055c2.285,0,4.137,1.896,4.137,4.237    c0,2.34-1.852,4.237-4.137,4.237s-4.137-1.896-4.137-4.237C19.689,59.951,21.541,58.055,23.826,58.055z"/></g><g><path d="M95,37.929c0-4.602-4.125-8.345-9.195-8.345H18.791c-5.076,0-9.203,3.743-9.203,8.345v11.726h24.445    c0.802,0,1.451,0.665,1.451,1.487v22.301c0,0.822-0.649,1.486-1.451,1.486H9.588v11.726c0,4.6,4.127,8.346,9.203,8.346h67.014    C90.875,95,95,91.254,95,86.654V37.929z"/></g><g><polygon points="65.327,5 33.459,26.084 41.16,22.838 69.138,11.04   "/></g><g><path d="M77.048,10.92l-5.19,2.187v0.003L39.549,26.732h13.834l15.625-6.589c1.176,2.93,4.45,4.327,7.309,3.122l1.393,3.467h5.698    L77.048,10.92z"/></g></g><text x="0" y="115" fill="#000000" font-size="5px" font-weight="bold" font-family="'Helvetica Neue', Helvetica, Arial-Unicode, Arial, Sans-serif">Created by Royyan Wijaya</text><text x="0" y="120" fill="#000000" font-size="5px" font-weight="bold" font-family="'Helvetica Neue', Helvetica, Arial-Unicode, Arial, Sans-serif">from the Noun Project</text></svg>