<svg xmlns="http://www.w3.org/2000/svg" width="48" height="48"><defs><linearGradient x1="14.23" y1="14.744" x2="54.983" y2="54.469" gradientUnits="userSpaceOnUse" id="a"><stop offset="0" stop-opacity=".3"/><stop offset="1" stop-opacity="0"/></linearGradient></defs><g fill="none" stroke-width="none" stroke-miterlimit="10" font-family="none" font-weight="none" font-size="none" text-anchor="none" style="mix-blend-mode:normal"><path d="M2 24C2 11.85 11.85 2 24 2s22 9.85 22 22-9.85 22-22 22S2 36.15 2 24z" fill="#69c"/><path d="M14.832 32.654a2.05 2.05 0 0 1-.602-1.455V16.801c0-1.136.92-2.057 2.057-2.057h14.398c.568 0 1.082.23 1.454.602l13.357 13.357c-1.886 8.66-8.871 15.415-17.652 16.962z" fill="url(#a)"/><path d="M32.742 30.17v1.03c0 1.136-.92 2.057-2.057 2.057H16.287A2.056 2.056 0 0 1 14.23 31.2V16.801c0-1.136.92-2.057 2.057-2.057h14.398c1.136 0 2.057.92 2.057 2.057v1.028h-9.256c-1.137 0-2.057.92-2.057 2.057v8.228c0 1.136.92 2.057 2.057 2.057zm-9.256-2.056H33.77v-8.228H23.486zm4.114-2.571A1.54 1.54 0 0 1 26.057 24a1.54 1.54 0 0 1 1.543-1.543c.853 0 1.542.69 1.542 1.543a1.54 1.54 0 0 1-1.542 1.543z"/><path d="M32.742 30.17v1.03c0 1.136-.92 2.057-2.057 2.057H16.287A2.056 2.056 0 0 1 14.23 31.2V16.801c0-1.136.92-2.057 2.057-2.057h14.398c1.136 0 2.057.92 2.057 2.057v1.028h-9.256c-1.137 0-2.057.92-2.057 2.057v8.228c0 1.136.92 2.057 2.057 2.057zm-9.256-10.284H33.77v8.228H23.486zM29.142 24a1.54 1.54 0 0 0-1.542-1.543A1.54 1.54 0 0 0 26.057 24a1.54 1.54 0 0 0 1.543 1.543A1.54 1.54 0 0 0 29.142 24z" fill="#fff"/><path d="M2 24C2 11.85 11.85 2 24 2s22 9.85 22 22-9.85 22-22 22S2 36.15 2 24z"/><path d="M2 2h44v22H2z"/><path d="M2 24V2h44v22z"/><path d="M2 24V2h44v22z"/><path d="M2 24V2h44v22z"/><path d="M2 24V2h44v22z"/></g></svg>